%TF.GenerationSoftware,KiCad,Pcbnew,7.0.1-3b83917a11~172~ubuntu22.04.1*%
%TF.CreationDate,2023-04-27T17:22:45+02:00*%
%TF.ProjectId,knight_rider,6b6e6967-6874-45f7-9269-6465722e6b69,rev?*%
%TF.SameCoordinates,Original*%
%TF.FileFunction,Soldermask,Bot*%
%TF.FilePolarity,Negative*%
%FSLAX46Y46*%
G04 Gerber Fmt 4.6, Leading zero omitted, Abs format (unit mm)*
G04 Created by KiCad (PCBNEW 7.0.1-3b83917a11~172~ubuntu22.04.1) date 2023-04-27 17:22:45*
%MOMM*%
%LPD*%
G01*
G04 APERTURE LIST*
%ADD10R,1.800000X1.800000*%
%ADD11C,1.800000*%
%ADD12R,1.600000X1.600000*%
%ADD13O,1.600000X1.600000*%
%ADD14C,1.600000*%
%ADD15R,1.200000X1.200000*%
%ADD16C,1.200000*%
%ADD17R,1.700000X1.700000*%
%ADD18O,1.700000X1.700000*%
%ADD19C,1.620000*%
G04 APERTURE END LIST*
D10*
%TO.C,D14*%
X96520000Y-106440000D03*
D11*
X96520000Y-108980000D03*
%TD*%
D12*
%TO.C,U1*%
X38100000Y-86360000D03*
D13*
X35560000Y-86360000D03*
X33020000Y-86360000D03*
X30480000Y-86360000D03*
X30480000Y-93980000D03*
X33020000Y-93980000D03*
X35560000Y-93980000D03*
X38100000Y-93980000D03*
%TD*%
D12*
%TO.C,D7*%
X82550000Y-88900000D03*
D13*
X74930000Y-88900000D03*
%TD*%
D12*
%TO.C,D5*%
X82550000Y-99060000D03*
D13*
X74930000Y-99060000D03*
%TD*%
D10*
%TO.C,D12*%
X96520000Y-91440000D03*
D11*
X96520000Y-93980000D03*
%TD*%
D12*
%TO.C,D8*%
X82550000Y-83820000D03*
D13*
X74930000Y-83820000D03*
%TD*%
D14*
%TO.C,R2*%
X22860000Y-93980000D03*
D13*
X22860000Y-104140000D03*
%TD*%
D10*
%TO.C,D13*%
X96520000Y-98940000D03*
D11*
X96520000Y-101480000D03*
%TD*%
D12*
%TO.C,D3*%
X82550000Y-109220000D03*
D13*
X74930000Y-109220000D03*
%TD*%
D15*
%TO.C,C1*%
X40640000Y-101600000D03*
D16*
X42140000Y-101600000D03*
%TD*%
D10*
%TO.C,D11*%
X96520000Y-83940000D03*
D11*
X96520000Y-86480000D03*
%TD*%
D14*
%TO.C,R1*%
X48260000Y-78740000D03*
D13*
X38100000Y-78740000D03*
%TD*%
D10*
%TO.C,D15*%
X96520000Y-113940000D03*
D11*
X96520000Y-116480000D03*
%TD*%
D12*
%TO.C,U2*%
X63500000Y-86360000D03*
D13*
X60960000Y-86360000D03*
X58420000Y-86360000D03*
X55880000Y-86360000D03*
X53340000Y-86360000D03*
X50800000Y-86360000D03*
X48260000Y-86360000D03*
X45720000Y-86360000D03*
X45720000Y-93980000D03*
X48260000Y-93980000D03*
X50800000Y-93980000D03*
X53340000Y-93980000D03*
X55880000Y-93980000D03*
X58420000Y-93980000D03*
X60960000Y-93980000D03*
X63500000Y-93980000D03*
%TD*%
D17*
%TO.C,J2*%
X17780000Y-96520000D03*
D18*
X17780000Y-99060000D03*
%TD*%
D14*
%TO.C,R3*%
X68580000Y-78740000D03*
D13*
X58420000Y-78740000D03*
%TD*%
D12*
%TO.C,D9*%
X82550000Y-78740000D03*
D13*
X74930000Y-78740000D03*
%TD*%
D12*
%TO.C,D2*%
X82550000Y-114300000D03*
D13*
X74930000Y-114300000D03*
%TD*%
D10*
%TO.C,D10*%
X96520000Y-76440000D03*
D11*
X96520000Y-78980000D03*
%TD*%
D19*
%TO.C,RV1*%
X22900000Y-83860000D03*
X25400000Y-86360000D03*
X22900000Y-88860000D03*
%TD*%
D12*
%TO.C,D6*%
X82550000Y-93980000D03*
D13*
X74930000Y-93980000D03*
%TD*%
D10*
%TO.C,D1*%
X22860000Y-109220000D03*
D11*
X22860000Y-111760000D03*
%TD*%
D12*
%TO.C,D4*%
X82550000Y-104140000D03*
D13*
X74930000Y-104140000D03*
%TD*%
M02*
