%TF.GenerationSoftware,KiCad,Pcbnew,7.0.1-3b83917a11~172~ubuntu22.04.1*%
%TF.CreationDate,2023-04-27T17:22:44+02:00*%
%TF.ProjectId,knight_rider,6b6e6967-6874-45f7-9269-6465722e6b69,rev?*%
%TF.SameCoordinates,Original*%
%TF.FileFunction,Copper,L2,Bot*%
%TF.FilePolarity,Positive*%
%FSLAX46Y46*%
G04 Gerber Fmt 4.6, Leading zero omitted, Abs format (unit mm)*
G04 Created by KiCad (PCBNEW 7.0.1-3b83917a11~172~ubuntu22.04.1) date 2023-04-27 17:22:44*
%MOMM*%
%LPD*%
G01*
G04 APERTURE LIST*
%TA.AperFunction,ComponentPad*%
%ADD10R,1.800000X1.800000*%
%TD*%
%TA.AperFunction,ComponentPad*%
%ADD11C,1.800000*%
%TD*%
%TA.AperFunction,ComponentPad*%
%ADD12R,1.600000X1.600000*%
%TD*%
%TA.AperFunction,ComponentPad*%
%ADD13O,1.600000X1.600000*%
%TD*%
%TA.AperFunction,ComponentPad*%
%ADD14C,1.600000*%
%TD*%
%TA.AperFunction,ComponentPad*%
%ADD15R,1.200000X1.200000*%
%TD*%
%TA.AperFunction,ComponentPad*%
%ADD16C,1.200000*%
%TD*%
%TA.AperFunction,ComponentPad*%
%ADD17R,1.700000X1.700000*%
%TD*%
%TA.AperFunction,ComponentPad*%
%ADD18O,1.700000X1.700000*%
%TD*%
%TA.AperFunction,ComponentPad*%
%ADD19C,1.620000*%
%TD*%
%TA.AperFunction,Conductor*%
%ADD20C,0.250000*%
%TD*%
G04 APERTURE END LIST*
D10*
%TO.P,D14,1,K*%
%TO.N,Net-(D10-K)*%
X96520000Y-106440000D03*
D11*
%TO.P,D14,2,A*%
%TO.N,Net-(D14-A)*%
X96520000Y-108980000D03*
%TD*%
D12*
%TO.P,U1,1,GND*%
%TO.N,/GND*%
X38100000Y-86360000D03*
D13*
%TO.P,U1,2,TR*%
%TO.N,Net-(U1-THR)*%
X35560000Y-86360000D03*
%TO.P,U1,3,Q*%
%TO.N,Net-(U1-Q)*%
X33020000Y-86360000D03*
%TO.P,U1,4,R*%
%TO.N,Net-(D1-A)*%
X30480000Y-86360000D03*
%TO.P,U1,5,CV*%
%TO.N,unconnected-(U1-CV-Pad5)*%
X30480000Y-93980000D03*
%TO.P,U1,6,THR*%
%TO.N,Net-(U1-THR)*%
X33020000Y-93980000D03*
%TO.P,U1,7,DIS*%
%TO.N,/VCC*%
X35560000Y-93980000D03*
%TO.P,U1,8,VCC*%
%TO.N,Net-(D1-A)*%
X38100000Y-93980000D03*
%TD*%
D12*
%TO.P,D7,1,K*%
%TO.N,Net-(D13-A)*%
X82550000Y-88900000D03*
D13*
%TO.P,D7,2,A*%
%TO.N,Net-(D7-A)*%
X74930000Y-88900000D03*
%TD*%
D12*
%TO.P,D5,1,K*%
%TO.N,Net-(D12-A)*%
X82550000Y-99060000D03*
D13*
%TO.P,D5,2,A*%
%TO.N,Net-(D5-A)*%
X74930000Y-99060000D03*
%TD*%
D10*
%TO.P,D12,1,K*%
%TO.N,Net-(D10-K)*%
X96520000Y-91440000D03*
D11*
%TO.P,D12,2,A*%
%TO.N,Net-(D12-A)*%
X96520000Y-93980000D03*
%TD*%
D12*
%TO.P,D8,1,K*%
%TO.N,Net-(D14-A)*%
X82550000Y-83820000D03*
D13*
%TO.P,D8,2,A*%
%TO.N,Net-(D8-A)*%
X74930000Y-83820000D03*
%TD*%
D14*
%TO.P,R2,1*%
%TO.N,/GND*%
X22860000Y-93980000D03*
D13*
%TO.P,R2,2*%
%TO.N,Net-(D1-K)*%
X22860000Y-104140000D03*
%TD*%
D10*
%TO.P,D13,1,K*%
%TO.N,Net-(D10-K)*%
X96520000Y-98940000D03*
D11*
%TO.P,D13,2,A*%
%TO.N,Net-(D13-A)*%
X96520000Y-101480000D03*
%TD*%
D12*
%TO.P,D3,1,K*%
%TO.N,Net-(D11-A)*%
X82550000Y-109220000D03*
D13*
%TO.P,D3,2,A*%
%TO.N,Net-(D3-A)*%
X74930000Y-109220000D03*
%TD*%
D15*
%TO.P,C1,1*%
%TO.N,Net-(U1-THR)*%
X40640000Y-101600000D03*
D16*
%TO.P,C1,2*%
%TO.N,/GND*%
X42140000Y-101600000D03*
%TD*%
D10*
%TO.P,D11,1,K*%
%TO.N,Net-(D10-K)*%
X96520000Y-83940000D03*
D11*
%TO.P,D11,2,A*%
%TO.N,Net-(D11-A)*%
X96520000Y-86480000D03*
%TD*%
D14*
%TO.P,R1,1*%
%TO.N,/VCC*%
X48260000Y-78740000D03*
D13*
%TO.P,R1,2*%
%TO.N,Net-(D1-A)*%
X38100000Y-78740000D03*
%TD*%
D10*
%TO.P,D15,1,K*%
%TO.N,Net-(D10-K)*%
X96520000Y-113940000D03*
D11*
%TO.P,D15,2,A*%
%TO.N,Net-(D15-A)*%
X96520000Y-116480000D03*
%TD*%
D12*
%TO.P,U2,1,Q5*%
%TO.N,Net-(D10-A)*%
X63500000Y-86360000D03*
D13*
%TO.P,U2,2,Q1*%
%TO.N,Net-(D9-A)*%
X60960000Y-86360000D03*
%TO.P,U2,3,Q0*%
%TO.N,Net-(D15-A)*%
X58420000Y-86360000D03*
%TO.P,U2,4,Q2*%
%TO.N,Net-(D7-A)*%
X55880000Y-86360000D03*
%TO.P,U2,5,Q6*%
%TO.N,Net-(D3-A)*%
X53340000Y-86360000D03*
%TO.P,U2,6,Q7*%
%TO.N,Net-(D4-A)*%
X50800000Y-86360000D03*
%TO.P,U2,7,Q3*%
%TO.N,Net-(D5-A)*%
X48260000Y-86360000D03*
%TO.P,U2,8,VSS*%
%TO.N,/GND*%
X45720000Y-86360000D03*
%TO.P,U2,9,Q8*%
%TO.N,Net-(D6-A)*%
X45720000Y-93980000D03*
%TO.P,U2,10,Q4*%
%TO.N,Net-(D2-A)*%
X48260000Y-93980000D03*
%TO.P,U2,11,Q9*%
%TO.N,Net-(D8-A)*%
X50800000Y-93980000D03*
%TO.P,U2,12,Cout*%
%TO.N,unconnected-(U2-Cout-Pad12)*%
X53340000Y-93980000D03*
%TO.P,U2,13,CKEN*%
%TO.N,/GND*%
X55880000Y-93980000D03*
%TO.P,U2,14,CLK*%
%TO.N,Net-(U1-Q)*%
X58420000Y-93980000D03*
%TO.P,U2,15,Reset*%
%TO.N,/GND*%
X60960000Y-93980000D03*
%TO.P,U2,16,VDD*%
%TO.N,Net-(D1-A)*%
X63500000Y-93980000D03*
%TD*%
D17*
%TO.P,J2,1,Pin_1*%
%TO.N,/VCC*%
X17780000Y-96520000D03*
D18*
%TO.P,J2,2,Pin_2*%
%TO.N,/GND*%
X17780000Y-99060000D03*
%TD*%
D14*
%TO.P,R3,1*%
%TO.N,Net-(D10-K)*%
X68580000Y-78740000D03*
D13*
%TO.P,R3,2*%
%TO.N,/GND*%
X58420000Y-78740000D03*
%TD*%
D12*
%TO.P,D9,1,K*%
%TO.N,Net-(D14-A)*%
X82550000Y-78740000D03*
D13*
%TO.P,D9,2,A*%
%TO.N,Net-(D9-A)*%
X74930000Y-78740000D03*
%TD*%
D12*
%TO.P,D2,1,K*%
%TO.N,Net-(D11-A)*%
X82550000Y-114300000D03*
D13*
%TO.P,D2,2,A*%
%TO.N,Net-(D2-A)*%
X74930000Y-114300000D03*
%TD*%
D10*
%TO.P,D10,1,K*%
%TO.N,Net-(D10-K)*%
X96520000Y-76440000D03*
D11*
%TO.P,D10,2,A*%
%TO.N,Net-(D10-A)*%
X96520000Y-78980000D03*
%TD*%
D19*
%TO.P,RV1,1*%
%TO.N,/VCC*%
X22900000Y-83860000D03*
%TO.P,RV1,2*%
%TO.N,Net-(U1-THR)*%
X25400000Y-86360000D03*
%TO.P,RV1,3*%
%TO.N,N/C*%
X22900000Y-88860000D03*
%TD*%
D12*
%TO.P,D6,1,K*%
%TO.N,Net-(D13-A)*%
X82550000Y-93980000D03*
D13*
%TO.P,D6,2,A*%
%TO.N,Net-(D6-A)*%
X74930000Y-93980000D03*
%TD*%
D10*
%TO.P,D1,1,K*%
%TO.N,Net-(D1-K)*%
X22860000Y-109220000D03*
D11*
%TO.P,D1,2,A*%
%TO.N,Net-(D1-A)*%
X22860000Y-111760000D03*
%TD*%
D12*
%TO.P,D4,1,K*%
%TO.N,Net-(D12-A)*%
X82550000Y-104140000D03*
D13*
%TO.P,D4,2,A*%
%TO.N,Net-(D4-A)*%
X74930000Y-104140000D03*
%TD*%
D20*
%TO.N,Net-(D6-A)*%
X45720000Y-93980000D02*
X45720000Y-96070000D01*
X45720000Y-96070000D02*
X55670991Y-96070000D01*
X55670991Y-96070000D02*
X57295000Y-94445991D01*
X59175991Y-92855000D02*
X59835000Y-93514009D01*
X59835000Y-94445991D02*
X61909009Y-96520000D01*
X57295000Y-94445991D02*
X57295000Y-93514009D01*
X57295000Y-93514009D02*
X57954009Y-92855000D01*
X57954009Y-92855000D02*
X59175991Y-92855000D01*
X59835000Y-93514009D02*
X59835000Y-94445991D01*
X61909009Y-96520000D02*
X72390000Y-96520000D01*
X72390000Y-96520000D02*
X74930000Y-93980000D01*
%TO.N,Net-(U1-THR)*%
X33020000Y-93980000D02*
X33020000Y-88900000D01*
X27940000Y-88900000D02*
X33020000Y-88900000D01*
X25400000Y-86360000D02*
X27940000Y-88900000D01*
X33020000Y-88900000D02*
X35560000Y-86360000D01*
%TO.N,Net-(D1-A)*%
X38100000Y-96520000D02*
X38100000Y-93980000D01*
X22860000Y-111760000D02*
X38100000Y-96520000D01*
%TO.N,Net-(D11-A)*%
X101600000Y-91560000D02*
X96520000Y-86480000D01*
X101600000Y-104140000D02*
X101600000Y-91560000D01*
X82550000Y-114300000D02*
X82550000Y-109220000D01*
X82550000Y-109220000D02*
X87630000Y-104140000D01*
X87630000Y-104140000D02*
X101600000Y-104140000D01*
%TO.N,Net-(D12-A)*%
X82550000Y-99060000D02*
X91440000Y-99060000D01*
X91440000Y-99060000D02*
X96520000Y-93980000D01*
%TO.N,Net-(D13-A)*%
X82550000Y-88900000D02*
X82550000Y-93980000D01*
%TO.N,Net-(D14-A)*%
X97396396Y-108980000D02*
X96520000Y-108980000D01*
X102050000Y-104326396D02*
X97396396Y-108980000D01*
X82550000Y-83820000D02*
X83895000Y-85165000D01*
X102050000Y-89350000D02*
X102050000Y-104326396D01*
X83895000Y-85165000D02*
X97865000Y-85165000D01*
X97865000Y-85165000D02*
X102050000Y-89350000D01*
%TO.N,Net-(D8-A)*%
X69850000Y-88900000D02*
X74930000Y-83820000D01*
X50800000Y-88900000D02*
X69850000Y-88900000D01*
X50800000Y-93980000D02*
X50800000Y-88900000D01*
%TO.N,/GND*%
X37634009Y-92855000D02*
X38565991Y-92855000D01*
X36975000Y-93514009D02*
X37634009Y-92855000D01*
X17780000Y-99060000D02*
X22860000Y-93980000D01*
X59385000Y-92405000D02*
X60960000Y-93980000D01*
X36975000Y-94445991D02*
X36975000Y-93514009D01*
X42140000Y-100560000D02*
X42140000Y-101600000D01*
X57455000Y-92405000D02*
X59385000Y-92405000D01*
X50334009Y-95105000D02*
X54755000Y-95105000D01*
X45720000Y-86360000D02*
X53340000Y-78740000D01*
X23985000Y-95105000D02*
X36315991Y-95105000D01*
X38565991Y-92855000D02*
X40640000Y-94929009D01*
X49675000Y-94445991D02*
X50334009Y-95105000D01*
X22860000Y-93980000D02*
X23985000Y-95105000D01*
X55880000Y-93980000D02*
X57455000Y-92405000D01*
X36315991Y-95105000D02*
X36975000Y-94445991D01*
X53340000Y-78740000D02*
X58420000Y-78740000D01*
X45720000Y-86360000D02*
X49675000Y-90315000D01*
X40640000Y-94929009D02*
X40640000Y-99060000D01*
X49675000Y-90315000D02*
X49675000Y-94445991D01*
X54755000Y-95105000D02*
X55880000Y-93980000D01*
X38100000Y-86360000D02*
X45720000Y-86360000D01*
X40640000Y-99060000D02*
X42140000Y-100560000D01*
%TO.N,Net-(U1-Q)*%
X55880000Y-96520000D02*
X58420000Y-93980000D01*
X36975000Y-90315000D02*
X43180000Y-96520000D01*
X34145000Y-85235000D02*
X36025991Y-85235000D01*
X33020000Y-86360000D02*
X34145000Y-85235000D01*
X43180000Y-96520000D02*
X55880000Y-96520000D01*
X36975000Y-86184009D02*
X36975000Y-90315000D01*
X36025991Y-85235000D02*
X36975000Y-86184009D01*
%TD*%
M02*
