M48
; DRILL file {KiCad 7.0.1-3b83917a11~172~ubuntu22.04.1} date Fri 28 Apr 2023 05:54:23 PM CEST
; FORMAT={-:-/ absolute / inch / decimal}
; #@! TF.CreationDate,2023-04-28T17:54:23+02:00
; #@! TF.GenerationSoftware,Kicad,Pcbnew,7.0.1-3b83917a11~172~ubuntu22.04.1
; #@! TF.FileFunction,Plated,1,2,PTH
FMAT,2
INCH
; #@! TA.AperFunction,Plated,PTH,ComponentDrill
T1C0.0236
; #@! TA.AperFunction,Plated,PTH,ComponentDrill
T2C0.0315
; #@! TA.AperFunction,Plated,PTH,ComponentDrill
T3C0.0354
; #@! TA.AperFunction,Plated,PTH,ComponentDrill
T4C0.0394
%
G90
G05
T1
X1.6Y-4.0
X1.6591Y-4.0
T2
X0.9Y-3.7
X0.9Y-4.1
X1.2Y-3.4
X1.2Y-3.7
X1.3Y-3.4
X1.3Y-3.7
X1.4Y-3.4
X1.4Y-3.7
X1.5Y-3.1
X1.5Y-3.4
X1.5Y-3.7
X1.8Y-3.4
X1.8Y-3.7
X1.9Y-3.1
X1.9Y-3.4
X1.9Y-3.7
X2.0Y-3.4
X2.0Y-3.7
X2.1Y-3.4
X2.1Y-3.7
X2.2Y-3.4
X2.2Y-3.7
X2.3Y-3.1
X2.3Y-3.4
X2.3Y-3.7
X2.4Y-3.4
X2.4Y-3.7
X2.5Y-3.4
X2.5Y-3.7
X2.7Y-3.1
X2.95Y-3.1
X2.95Y-3.3
X2.95Y-3.5
X2.95Y-3.7
X2.95Y-3.9
X2.95Y-4.1
X2.95Y-4.3
X2.95Y-4.5
X3.25Y-3.1
X3.25Y-3.3
X3.25Y-3.5
X3.25Y-3.7
X3.25Y-3.9
X3.25Y-4.1
X3.25Y-4.3
X3.25Y-4.5
T3
X0.9Y-4.3
X0.9Y-4.4
X0.9016Y-3.3016
X0.9016Y-3.4984
X1.0Y-3.4
X3.8Y-3.0094
X3.8Y-3.1094
X3.8Y-3.3047
X3.8Y-3.4047
X3.8Y-3.6
X3.8Y-3.7
X3.8Y-3.8953
X3.8Y-3.9953
X3.8Y-4.1906
X3.8Y-4.2906
X3.8Y-4.4858
X3.8Y-4.5858
T4
X0.7Y-3.8
X0.7Y-3.9
T0
M30
