%TF.GenerationSoftware,KiCad,Pcbnew,7.0.1-3b83917a11~172~ubuntu22.04.1*%
%TF.CreationDate,2023-04-27T17:22:44+02:00*%
%TF.ProjectId,knight_rider,6b6e6967-6874-45f7-9269-6465722e6b69,rev?*%
%TF.SameCoordinates,Original*%
%TF.FileFunction,Copper,L1,Top*%
%TF.FilePolarity,Positive*%
%FSLAX46Y46*%
G04 Gerber Fmt 4.6, Leading zero omitted, Abs format (unit mm)*
G04 Created by KiCad (PCBNEW 7.0.1-3b83917a11~172~ubuntu22.04.1) date 2023-04-27 17:22:44*
%MOMM*%
%LPD*%
G01*
G04 APERTURE LIST*
%TA.AperFunction,ComponentPad*%
%ADD10R,1.800000X1.800000*%
%TD*%
%TA.AperFunction,ComponentPad*%
%ADD11C,1.800000*%
%TD*%
%TA.AperFunction,ComponentPad*%
%ADD12R,1.600000X1.600000*%
%TD*%
%TA.AperFunction,ComponentPad*%
%ADD13O,1.600000X1.600000*%
%TD*%
%TA.AperFunction,ComponentPad*%
%ADD14C,1.600000*%
%TD*%
%TA.AperFunction,ComponentPad*%
%ADD15R,1.200000X1.200000*%
%TD*%
%TA.AperFunction,ComponentPad*%
%ADD16C,1.200000*%
%TD*%
%TA.AperFunction,ComponentPad*%
%ADD17R,1.700000X1.700000*%
%TD*%
%TA.AperFunction,ComponentPad*%
%ADD18O,1.700000X1.700000*%
%TD*%
%TA.AperFunction,ComponentPad*%
%ADD19C,1.620000*%
%TD*%
%TA.AperFunction,Conductor*%
%ADD20C,0.250000*%
%TD*%
G04 APERTURE END LIST*
D10*
%TO.P,D14,1,K*%
%TO.N,Net-(D10-K)*%
X96520000Y-106440000D03*
D11*
%TO.P,D14,2,A*%
%TO.N,Net-(D14-A)*%
X96520000Y-108980000D03*
%TD*%
D12*
%TO.P,U1,1,GND*%
%TO.N,/GND*%
X38100000Y-86360000D03*
D13*
%TO.P,U1,2,TR*%
%TO.N,Net-(U1-THR)*%
X35560000Y-86360000D03*
%TO.P,U1,3,Q*%
%TO.N,Net-(U1-Q)*%
X33020000Y-86360000D03*
%TO.P,U1,4,R*%
%TO.N,Net-(D1-A)*%
X30480000Y-86360000D03*
%TO.P,U1,5,CV*%
%TO.N,unconnected-(U1-CV-Pad5)*%
X30480000Y-93980000D03*
%TO.P,U1,6,THR*%
%TO.N,Net-(U1-THR)*%
X33020000Y-93980000D03*
%TO.P,U1,7,DIS*%
%TO.N,/VCC*%
X35560000Y-93980000D03*
%TO.P,U1,8,VCC*%
%TO.N,Net-(D1-A)*%
X38100000Y-93980000D03*
%TD*%
D12*
%TO.P,D7,1,K*%
%TO.N,Net-(D13-A)*%
X82550000Y-88900000D03*
D13*
%TO.P,D7,2,A*%
%TO.N,Net-(D7-A)*%
X74930000Y-88900000D03*
%TD*%
D12*
%TO.P,D5,1,K*%
%TO.N,Net-(D12-A)*%
X82550000Y-99060000D03*
D13*
%TO.P,D5,2,A*%
%TO.N,Net-(D5-A)*%
X74930000Y-99060000D03*
%TD*%
D10*
%TO.P,D12,1,K*%
%TO.N,Net-(D10-K)*%
X96520000Y-91440000D03*
D11*
%TO.P,D12,2,A*%
%TO.N,Net-(D12-A)*%
X96520000Y-93980000D03*
%TD*%
D12*
%TO.P,D8,1,K*%
%TO.N,Net-(D14-A)*%
X82550000Y-83820000D03*
D13*
%TO.P,D8,2,A*%
%TO.N,Net-(D8-A)*%
X74930000Y-83820000D03*
%TD*%
D14*
%TO.P,R2,1*%
%TO.N,/GND*%
X22860000Y-93980000D03*
D13*
%TO.P,R2,2*%
%TO.N,Net-(D1-K)*%
X22860000Y-104140000D03*
%TD*%
D10*
%TO.P,D13,1,K*%
%TO.N,Net-(D10-K)*%
X96520000Y-98940000D03*
D11*
%TO.P,D13,2,A*%
%TO.N,Net-(D13-A)*%
X96520000Y-101480000D03*
%TD*%
D12*
%TO.P,D3,1,K*%
%TO.N,Net-(D11-A)*%
X82550000Y-109220000D03*
D13*
%TO.P,D3,2,A*%
%TO.N,Net-(D3-A)*%
X74930000Y-109220000D03*
%TD*%
D15*
%TO.P,C1,1*%
%TO.N,Net-(U1-THR)*%
X40640000Y-101600000D03*
D16*
%TO.P,C1,2*%
%TO.N,/GND*%
X42140000Y-101600000D03*
%TD*%
D10*
%TO.P,D11,1,K*%
%TO.N,Net-(D10-K)*%
X96520000Y-83940000D03*
D11*
%TO.P,D11,2,A*%
%TO.N,Net-(D11-A)*%
X96520000Y-86480000D03*
%TD*%
D14*
%TO.P,R1,1*%
%TO.N,/VCC*%
X48260000Y-78740000D03*
D13*
%TO.P,R1,2*%
%TO.N,Net-(D1-A)*%
X38100000Y-78740000D03*
%TD*%
D10*
%TO.P,D15,1,K*%
%TO.N,Net-(D10-K)*%
X96520000Y-113940000D03*
D11*
%TO.P,D15,2,A*%
%TO.N,Net-(D15-A)*%
X96520000Y-116480000D03*
%TD*%
D12*
%TO.P,U2,1,Q5*%
%TO.N,Net-(D10-A)*%
X63500000Y-86360000D03*
D13*
%TO.P,U2,2,Q1*%
%TO.N,Net-(D9-A)*%
X60960000Y-86360000D03*
%TO.P,U2,3,Q0*%
%TO.N,Net-(D15-A)*%
X58420000Y-86360000D03*
%TO.P,U2,4,Q2*%
%TO.N,Net-(D7-A)*%
X55880000Y-86360000D03*
%TO.P,U2,5,Q6*%
%TO.N,Net-(D3-A)*%
X53340000Y-86360000D03*
%TO.P,U2,6,Q7*%
%TO.N,Net-(D4-A)*%
X50800000Y-86360000D03*
%TO.P,U2,7,Q3*%
%TO.N,Net-(D5-A)*%
X48260000Y-86360000D03*
%TO.P,U2,8,VSS*%
%TO.N,/GND*%
X45720000Y-86360000D03*
%TO.P,U2,9,Q8*%
%TO.N,Net-(D6-A)*%
X45720000Y-93980000D03*
%TO.P,U2,10,Q4*%
%TO.N,Net-(D2-A)*%
X48260000Y-93980000D03*
%TO.P,U2,11,Q9*%
%TO.N,Net-(D8-A)*%
X50800000Y-93980000D03*
%TO.P,U2,12,Cout*%
%TO.N,unconnected-(U2-Cout-Pad12)*%
X53340000Y-93980000D03*
%TO.P,U2,13,CKEN*%
%TO.N,/GND*%
X55880000Y-93980000D03*
%TO.P,U2,14,CLK*%
%TO.N,Net-(U1-Q)*%
X58420000Y-93980000D03*
%TO.P,U2,15,Reset*%
%TO.N,/GND*%
X60960000Y-93980000D03*
%TO.P,U2,16,VDD*%
%TO.N,Net-(D1-A)*%
X63500000Y-93980000D03*
%TD*%
D17*
%TO.P,J2,1,Pin_1*%
%TO.N,/VCC*%
X17780000Y-96520000D03*
D18*
%TO.P,J2,2,Pin_2*%
%TO.N,/GND*%
X17780000Y-99060000D03*
%TD*%
D14*
%TO.P,R3,1*%
%TO.N,Net-(D10-K)*%
X68580000Y-78740000D03*
D13*
%TO.P,R3,2*%
%TO.N,/GND*%
X58420000Y-78740000D03*
%TD*%
D12*
%TO.P,D9,1,K*%
%TO.N,Net-(D14-A)*%
X82550000Y-78740000D03*
D13*
%TO.P,D9,2,A*%
%TO.N,Net-(D9-A)*%
X74930000Y-78740000D03*
%TD*%
D12*
%TO.P,D2,1,K*%
%TO.N,Net-(D11-A)*%
X82550000Y-114300000D03*
D13*
%TO.P,D2,2,A*%
%TO.N,Net-(D2-A)*%
X74930000Y-114300000D03*
%TD*%
D10*
%TO.P,D10,1,K*%
%TO.N,Net-(D10-K)*%
X96520000Y-76440000D03*
D11*
%TO.P,D10,2,A*%
%TO.N,Net-(D10-A)*%
X96520000Y-78980000D03*
%TD*%
D19*
%TO.P,RV1,1*%
%TO.N,/VCC*%
X22900000Y-83860000D03*
%TO.P,RV1,2*%
%TO.N,Net-(U1-THR)*%
X25400000Y-86360000D03*
%TO.P,RV1,3*%
%TO.N,N/C*%
X22900000Y-88860000D03*
%TD*%
D12*
%TO.P,D6,1,K*%
%TO.N,Net-(D13-A)*%
X82550000Y-93980000D03*
D13*
%TO.P,D6,2,A*%
%TO.N,Net-(D6-A)*%
X74930000Y-93980000D03*
%TD*%
D10*
%TO.P,D1,1,K*%
%TO.N,Net-(D1-K)*%
X22860000Y-109220000D03*
D11*
%TO.P,D1,2,A*%
%TO.N,Net-(D1-A)*%
X22860000Y-111760000D03*
%TD*%
D12*
%TO.P,D4,1,K*%
%TO.N,Net-(D12-A)*%
X82550000Y-104140000D03*
D13*
%TO.P,D4,2,A*%
%TO.N,Net-(D4-A)*%
X74930000Y-104140000D03*
%TD*%
D20*
%TO.N,Net-(D1-A)*%
X52028604Y-94259595D02*
X52874009Y-95105000D01*
X52874009Y-95105000D02*
X62375000Y-95105000D01*
X38100000Y-78740000D02*
X30480000Y-86360000D01*
%TO.N,Net-(U1-THR)*%
X40640000Y-101600000D02*
X33020000Y-93980000D01*
%TO.N,Net-(D1-K)*%
X22860000Y-109220000D02*
X22860000Y-104140000D01*
%TO.N,Net-(D1-A)*%
X33485991Y-92855000D02*
X34145000Y-93514009D01*
X35316701Y-102525000D02*
X31851701Y-99060000D01*
X36975000Y-95105000D02*
X38100000Y-93980000D01*
X46010000Y-78740000D02*
X38100000Y-78740000D01*
X34145000Y-94468604D02*
X34781396Y-95105000D01*
X31851701Y-99060000D02*
X31851701Y-93557308D01*
X46845000Y-92855000D02*
X46845000Y-98203148D01*
X42523148Y-102525000D02*
X35316701Y-102525000D01*
X31851701Y-93557308D02*
X32554009Y-92855000D01*
X52028604Y-94259595D02*
X52028604Y-93305000D01*
X46845000Y-98203148D02*
X42523148Y-102525000D01*
X52028604Y-93305000D02*
X51578604Y-92855000D01*
X34145000Y-93514009D02*
X34145000Y-94468604D01*
X49385000Y-80155000D02*
X38100000Y-91440000D01*
X63500000Y-93980000D02*
X62375000Y-95105000D01*
X49385000Y-78274009D02*
X49385000Y-80155000D01*
X48725991Y-77615000D02*
X49385000Y-78274009D01*
X51578604Y-92855000D02*
X46845000Y-92855000D01*
X38100000Y-91440000D02*
X38100000Y-93980000D01*
X47135000Y-77615000D02*
X48725991Y-77615000D01*
X47135000Y-77615000D02*
X46010000Y-78740000D01*
X34781396Y-95105000D02*
X36975000Y-95105000D01*
X32554009Y-92855000D02*
X33485991Y-92855000D01*
%TO.N,Net-(D2-A)*%
X68580000Y-114300000D02*
X74930000Y-114300000D01*
X48260000Y-93980000D02*
X68580000Y-114300000D01*
%TO.N,Net-(D3-A)*%
X76650000Y-107500000D02*
X74930000Y-109220000D01*
X53340000Y-86360000D02*
X58485000Y-91505000D01*
X58485000Y-91505000D02*
X69602387Y-91505000D01*
X69602387Y-91505000D02*
X76650000Y-98552613D01*
X76650000Y-98552613D02*
X76650000Y-107500000D01*
%TO.N,Net-(D12-A)*%
X82550000Y-99060000D02*
X82550000Y-104140000D01*
%TO.N,Net-(D4-A)*%
X56395000Y-91955000D02*
X69415991Y-91955000D01*
X69415991Y-91955000D02*
X76200000Y-98739009D01*
X50800000Y-86360000D02*
X56395000Y-91955000D01*
X76200000Y-98739009D02*
X76200000Y-102870000D01*
X76200000Y-102870000D02*
X74930000Y-104140000D01*
%TO.N,Net-(D5-A)*%
X54305000Y-92405000D02*
X68275000Y-92405000D01*
X68275000Y-92405000D02*
X74930000Y-99060000D01*
X48260000Y-86360000D02*
X54305000Y-92405000D01*
%TO.N,Net-(D13-A)*%
X89020000Y-93980000D02*
X96520000Y-101480000D01*
X82550000Y-93980000D02*
X89020000Y-93980000D01*
%TO.N,Net-(D7-A)*%
X55880000Y-86360000D02*
X58420000Y-88900000D01*
X58420000Y-88900000D02*
X74930000Y-88900000D01*
%TO.N,Net-(D14-A)*%
X82550000Y-83820000D02*
X82550000Y-78740000D01*
%TO.N,Net-(D9-A)*%
X67455000Y-79865000D02*
X73805000Y-79865000D01*
X73805000Y-79865000D02*
X74930000Y-78740000D01*
X60960000Y-86360000D02*
X67455000Y-79865000D01*
%TO.N,Net-(D10-K)*%
X97745000Y-82715000D02*
X96520000Y-83940000D01*
X97745000Y-90215000D02*
X96520000Y-91440000D01*
X97745000Y-85165000D02*
X97745000Y-90215000D01*
X97745000Y-77665000D02*
X97745000Y-82715000D01*
X97745000Y-92665000D02*
X97745000Y-97715000D01*
X97745000Y-107665000D02*
X97745000Y-112715000D01*
X68580000Y-78740000D02*
X70880000Y-76440000D01*
X97745000Y-100165000D02*
X97745000Y-105215000D01*
X96520000Y-106440000D02*
X97745000Y-107665000D01*
X96520000Y-83940000D02*
X97745000Y-85165000D01*
X97745000Y-97715000D02*
X96520000Y-98940000D01*
X97745000Y-105215000D02*
X96520000Y-106440000D01*
X96520000Y-91440000D02*
X97745000Y-92665000D01*
X96520000Y-98940000D02*
X97745000Y-100165000D01*
X97745000Y-112715000D02*
X96520000Y-113940000D01*
X96520000Y-76440000D02*
X97745000Y-77665000D01*
X70880000Y-76440000D02*
X96520000Y-76440000D01*
%TO.N,Net-(D10-A)*%
X89140000Y-86360000D02*
X96520000Y-78980000D01*
X63500000Y-86360000D02*
X89140000Y-86360000D01*
%TO.N,Net-(D15-A)*%
X93980000Y-108240000D02*
X93980000Y-113940000D01*
X59835000Y-87775000D02*
X75395991Y-87775000D01*
X58420000Y-86360000D02*
X59835000Y-87775000D01*
X93980000Y-113940000D02*
X96520000Y-116480000D01*
X81280000Y-95540000D02*
X93980000Y-108240000D01*
X81280000Y-93659009D02*
X81280000Y-95540000D01*
X75395991Y-87775000D02*
X81280000Y-93659009D01*
%TO.N,/VCC*%
X17780000Y-96520000D02*
X17780000Y-88980000D01*
X25440000Y-83860000D02*
X35560000Y-93980000D01*
X35560000Y-91440000D02*
X48260000Y-78740000D01*
X17780000Y-88980000D02*
X22900000Y-83860000D01*
X35560000Y-93980000D02*
X35560000Y-91440000D01*
X22900000Y-83860000D02*
X25440000Y-83860000D01*
%TO.N,/GND*%
X42140000Y-89940000D02*
X45720000Y-86360000D01*
X42140000Y-101600000D02*
X42140000Y-89940000D01*
%TD*%
M02*
